<svg xmlns="http://www.w3.org/2000/svg" width="406.033" height="30.823" viewBox="0 0 406.033 30.823">
  <g id="Grupo_3" data-name="Grupo 3" transform="translate(0 38.645)">
    <path id="Caminho_369" data-name="Caminho 369" d="M374.241-8.232l18-30.332h7.485Q408.878-23.2,417.989-7.806h-8.9c-2.325-4.068-4.614-8.1-6.889-12.2l-6.211-11.263L389.778-20c-2.275,4.094-4.56,8.131-6.89,12.2h-8.9Zm-40.46.248L321.559-38.564h8.187l7.763,19.78,8.248-19.78h5.511l8.276,19.771,7.508-19.771h7.184Q368-23.184,361.759-7.806h-5.341l-8.442-20.435L339.3-7.806h-5.45Zm96.813-.1.034-13.4L413.9-38.564h10.583l10.679,11.471,10.776-11.471h9.427L438.6-21.65l-.034,13.844h-7.969Z" transform="translate(-65.088 -0.016)" fill="#92abca" fill-rule="evenodd"/>
    <path id="Caminho_370" data-name="Caminho 370" d="M223.287-8.1l.076-30.476h7.908l-.061,24.509h23.665l-.017,6.249H223.287ZM107.622-26.019l.05,18.2h-18.7q-2.388,0-4.366-.14a32.809,32.809,0,0,1-3.517-.421,18.989,18.989,0,0,1-2.859-.736A12.688,12.688,0,0,1,75.874-10.2a14,14,0,0,1-3.006-2.351,13.916,13.916,0,0,1-2.246-3.091,15.173,15.173,0,0,1-1.4-3.659,17.477,17.477,0,0,1-.475-4.089,16.365,16.365,0,0,1,1.173-6.431,12.523,12.523,0,0,1,3.564-4.811A15.838,15.838,0,0,1,79.261-37.6a27.834,27.834,0,0,1,7.752-.983H99.9l.015,5.985H92v-.017H86.975a15.052,15.052,0,0,0-4.415.587A8.212,8.212,0,0,0,79.409-30.3a7.119,7.119,0,0,0-1.889,2.834,11.263,11.263,0,0,0-.63,3.966,11.1,11.1,0,0,0,.781,4.347,6.7,6.7,0,0,0,2.287,2.881,11.1,11.1,0,0,0,4.163,1.643,31.794,31.794,0,0,0,6.417.556h9.212l-.029-10.11,7.9-2.208Zm62.549,17.77,18-30.332h7.485q9.127,15.38,18.258,30.758h-8.9c-2.33-4.066-4.614-8.1-6.889-12.2l-6.212-11.263-6.21,11.262c-2.276,4.095-4.565,8.128-6.89,12.2h-8.9ZM0-8.1.045-24.171l7.913-2.212L7.923-14.072h9.213a31.8,31.8,0,0,0,6.416-.556,11.1,11.1,0,0,0,4.163-1.643A6.7,6.7,0,0,0,30-19.151a11.106,11.106,0,0,0,.781-4.347,11.275,11.275,0,0,0-.629-3.97,7.117,7.117,0,0,0-1.89-2.831,8.18,8.18,0,0,0-3.146-1.73,15.064,15.064,0,0,0-4.42-.584H7.971v.017H.062l.015-5.985H20.659a27.821,27.821,0,0,1,7.752.983,15.823,15.823,0,0,1,5.775,2.964,12.519,12.519,0,0,1,3.566,4.811,16.369,16.369,0,0,1,1.173,6.431A17.5,17.5,0,0,1,38.45-19.3a15.168,15.168,0,0,1-1.4,3.659A13.922,13.922,0,0,1,34.8-12.553,14,14,0,0,1,31.8-10.2,12.725,12.725,0,0,1,29.443-9.12a19.008,19.008,0,0,1-2.858.736,32.871,32.871,0,0,1-3.518.421q-1.976.14-4.366.14H0Zm49.663,0,.071-28.287L57.649-38.6q-.047,15.39-.077,30.781H49.664Zm68.984,0,.07-28.329,7.913-2.212q-.047,15.411-.077,30.823h-7.907Zm38.774-24.509-.061,24.791h-7.909l.062-24.791H135.039l.014-5.967h36.919l-.014,5.967Z" fill="#fff" fill-rule="evenodd"/>
    <path id="Caminho_371" data-name="Caminho 371" d="M485.729-17.345h16.8a1.523,1.523,0,0,1,1.519,1.519V-5.284a1.523,1.523,0,0,1-1.519,1.518h-16.8a1.523,1.523,0,0,1-1.519-1.518V-15.826a1.523,1.523,0,0,1,1.519-1.519" transform="translate(-98.011 -4.311)" fill="#f59f00" fill-rule="evenodd"/>
  </g>
</svg>
